<?xml version="1.0" standalone="no"?>
<!DOCTYPE svg PUBLIC "-//W3C//DTD SVG 20010904//EN"
 "http://www.w3.org/TR/2001/REC-SVG-20010904/DTD/svg10.dtd">
<svg version="1.0" xmlns="http://www.w3.org/2000/svg"
 width="2383.000000pt" height="720.000000pt" viewBox="0 0 2383.000000 720.000000"
 preserveAspectRatio="xMidYMid meet">

<g transform="translate(0.000000,720.000000) scale(0.100000,-0.100000)"
fill="#000000" stroke="none">
<path d="M0 4750 l0 -2450 430 0 430 0 0 2450 0 2450 -430 0 -430 0 0 -2450z"/>
<path d="M1710 4750 l0 -2450 390 0 390 0 0 633 -1 632 233 227 c128 124 236
224 239 222 3 -1 248 -388 544 -859 l538 -855 474 0 c260 0 473 2 473 4 0 3
-334 507 -741 1122 l-742 1117 74 71 c41 40 346 333 678 651 l604 580 -477 3
-476 2 -407 -412 c-224 -227 -543 -550 -710 -718 l-303 -305 0 1393 0 1392
-390 0 -390 0 0 -2450z"/>
<path d="M5290 6830 l0 -370 390 0 390 0 0 370 0 370 -390 0 -390 0 0 -370z"/>
<path d="M8070 5930 c-495 -51 -860 -215 -1075 -483 -76 -94 -164 -263 -195
-377 -19 -70 -50 -243 -50 -282 0 -17 25 -18 388 -18 l387 0 17 75 c64 281
281 440 650 477 188 19 409 -6 558 -64 118 -46 215 -129 258 -221 64 -135 49
-325 -33 -433 -57 -74 -182 -134 -352 -168 -43 -9 -184 -29 -313 -46 -129 -16
-245 -32 -257 -35 -12 -3 -91 -14 -175 -25 -84 -12 -191 -28 -238 -36 -596
-108 -903 -350 -996 -784 -25 -117 -26 -414 -1 -512 103 -414 424 -686 902
-768 133 -23 401 -27 545 -10 362 45 695 178 918 367 35 30 53 40 56 31 2 -7
12 -39 22 -72 49 -164 184 -282 370 -321 91 -19 294 -19 414 0 85 14 131 24
253 56 l37 10 0 268 0 268 -118 -5 c-105 -4 -124 -2 -166 16 -38 17 -51 30
-69 69 l-22 48 -5 1060 c-6 1049 -6 1061 -28 1142 -107 404 -466 669 -1028
759 -116 18 -524 27 -654 14z m928 -2212 c-4 -351 -4 -353 -29 -420 -37 -96
-81 -158 -165 -237 -270 -252 -788 -315 -1152 -141 -58 28 -100 57 -141 97
-79 80 -103 135 -109 248 -12 248 114 433 357 528 114 44 258 73 560 112 372
48 507 78 621 140 25 13 49 24 53 25 5 0 7 -159 5 -352z"/>
<path d="M12145 5929 c-172 -22 -367 -95 -506 -190 -92 -62 -202 -171 -287
-284 -41 -55 -80 -100 -86 -100 -8 0 -12 77 -14 248 l-2 247 -365 0 -365 0 0
-1775 0 -1775 390 0 390 0 2 1153 3 1152 28 100 c70 257 214 442 422 545 119
59 188 74 335 74 367 -1 553 -170 600 -548 6 -50 10 -532 10 -1278 l0 -1198
390 0 390 0 0 1103 c0 1157 1 1200 46 1377 69 277 233 455 481 522 104 28 342
31 448 5 256 -63 377 -227 414 -561 7 -62 11 -505 11 -1271 l0 -1175 390 0
391 0 -4 1358 c-3 1202 -5 1366 -20 1435 -38 184 -86 310 -159 424 -183 282
-513 423 -990 423 -468 0 -792 -162 -1094 -545 l-31 -39 -26 57 c-101 222
-325 403 -587 477 -167 47 -417 63 -605 39z"/>
<path d="M16370 5343 c0 -346 4 -593 9 -588 8 9 743 1092 786 1158 l17 27
-406 0 -406 0 0 -597z"/>
<path d="M18032 5932 c2 -5 185 -277 407 -604 l405 -596 401 592 c220 325 404
597 408 604 7 9 -158 12 -808 12 -449 0 -815 -4 -813 -8z"/>
<path d="M20512 5931 c8 -24 804 -1190 810 -1188 7 2 183 258 645 940 l174
257 -816 0 c-506 0 -815 -4 -813 -9z"/>
<path d="M23020 5934 c0 -5 591 -880 752 -1113 l58 -84 0 601 0 602 -405 0
c-223 0 -405 -3 -405 -6z"/>
<path d="M5290 4075 l0 -1775 390 0 390 0 0 1775 0 1775 -390 0 -390 0 0
-1775z"/>
<path d="M17518 5208 c-47 -68 -232 -340 -411 -605 l-327 -482 411 -606 c227
-333 415 -602 419 -598 14 15 809 1190 812 1200 3 8 -808 1213 -817 1213 -2 0
-41 -55 -87 -122z"/>
<path d="M20058 5298 c-14 -18 -173 -251 -353 -518 -180 -267 -355 -524 -388
-572 l-59 -86 402 -594 c222 -326 408 -598 414 -605 8 -9 108 130 416 584 223
328 406 602 408 609 3 11 -774 1171 -808 1207 -4 5 -19 -6 -32 -25z"/>
<path d="M22150 4732 c-222 -328 -404 -604 -404 -612 1 -14 780 -1169 807
-1197 9 -9 107 128 412 578 220 324 404 598 408 608 7 14 -77 144 -398 617
-223 329 -409 600 -413 601 -4 1 -189 -267 -412 -595z"/>
<path d="M18436 2909 c-225 -330 -406 -602 -404 -605 3 -2 370 -3 817 -2 l812
3 -397 585 c-218 322 -402 593 -409 602 -10 16 -65 -61 -419 -583z"/>
<path d="M20913 2908 l-409 -603 408 -3 c224 -1 593 -1 818 0 l410 3 -173 255
c-95 140 -280 411 -409 603 l-236 347 -409 -602z"/>
<path d="M16370 2901 l0 -601 405 0 c223 0 405 2 405 5 0 3 -182 273 -405 601
l-405 597 0 -602z"/>
<path d="M23419 2903 l-405 -598 404 -3 c223 -1 407 -1 409 1 2 2 2 272 1 601
l-3 597 -406 -598z"/>
<path d="M20360 1518 c-52 -61 -96 -115 -98 -120 -2 -4 9 -8 25 -8 28 0 86 53
223 203 l34 37 -45 0 c-44 -1 -45 -1 -139 -112z"/>
<path d="M13 1143 c4 -485 4 -491 55 -605 43 -99 149 -181 268 -209 27 -6 94
-11 149 -11 255 -1 397 96 463 315 13 43 16 129 19 510 l4 457 -35 0 -36 0 0
-394 c0 -408 -7 -510 -41 -601 -56 -150 -181 -225 -374 -225 -204 0 -324 90
-381 285 -15 52 -18 120 -21 498 l-5 437 -34 0 -35 0 4 -457z"/>
<path d="M2120 1510 l0 -90 30 0 30 0 0 90 0 90 -30 0 -30 0 0 -90z"/>
<path d="M5460 1510 l0 -90 30 0 30 0 0 90 0 90 -30 0 -30 0 0 -90z"/>
<path d="M6440 1323 l0 -278 -29 51 c-36 63 -88 109 -161 143 -48 23 -68 26
-155 25 -119 0 -188 -23 -257 -84 -92 -80 -138 -210 -138 -385 0 -163 36 -276
115 -363 75 -84 208 -124 337 -103 114 19 180 63 265 177 l22 29 0 -97 1 -98
30 0 30 0 0 630 0 630 -30 0 -30 0 0 -277z m-245 -124 c142 -36 240 -204 238
-409 -2 -246 -135 -410 -332 -410 -205 0 -341 166 -341 415 1 304 178 469 435
404z"/>
<path d="M8299 1323 c0 -194 -3 -270 -10 -253 -86 217 -436 269 -604 88 -134
-143 -166 -423 -71 -623 42 -88 92 -140 174 -178 57 -27 76 -30 156 -31 149
-1 247 47 321 157 l35 52 0 -98 0 -97 35 0 35 0 0 630 0 630 -35 0 -35 0 -1
-277z m-284 -114 c77 -14 120 -37 171 -91 75 -78 114 -189 114 -323 0 -144
-46 -263 -132 -340 -138 -124 -365 -93 -468 63 -113 171 -99 454 31 596 51 56
100 82 179 96 25 4 45 8 46 9 0 0 27 -4 59 -10z"/>
<path d="M9090 970 l0 -630 35 0 35 0 0 291 0 290 278 -3 c312 -5 340 -10 405
-76 56 -57 68 -105 74 -282 2 -85 9 -170 15 -187 9 -31 13 -33 53 -33 l43 0
-15 32 c-12 22 -18 79 -24 197 -4 91 -12 180 -17 197 -30 99 -92 155 -197 179
l-30 7 45 17 c135 49 204 135 217 273 17 185 -82 316 -262 347 -35 6 -192 11
-358 11 l-297 0 0 -630z m672 546 c66 -25 133 -86 155 -144 27 -71 23 -167
-11 -237 -30 -60 -65 -92 -142 -127 -47 -22 -63 -23 -326 -26 l-278 -4 0 282
0 282 278 -4 c233 -4 284 -7 324 -22z"/>
<path d="M12070 1510 l0 -90 30 0 30 0 0 90 0 90 -30 0 -30 0 0 -90z"/>
<path d="M15120 970 l0 -630 30 0 30 0 0 630 0 630 -30 0 -30 0 0 -630z"/>
<path d="M16267 1588 c-111 -273 -497 -1238 -497 -1242 0 -3 17 -6 38 -6 l38
0 81 203 81 202 303 0 304 0 79 -202 79 -203 39 0 c21 0 38 3 38 6 0 3 -111
286 -247 630 l-246 624 -42 0 c-25 0 -45 -5 -48 -12z m178 -393 c65 -170 123
-327 131 -347 l13 -38 -274 0 c-206 0 -275 3 -275 12 0 6 56 154 124 327 69
174 130 329 136 345 6 17 14 25 19 20 5 -5 62 -148 126 -319z"/>
<path d="M21860 1510 l0 -90 30 0 30 0 0 90 0 90 -30 0 -30 0 0 -90z"/>
<path d="M1479 1257 c-54 -15 -126 -56 -156 -89 -12 -12 -33 -43 -47 -68 l-26
-45 0 98 0 97 -30 0 -30 0 0 -455 0 -455 30 0 30 0 0 283 c0 203 4 296 14 332
38 144 125 229 256 253 117 21 234 -24 277 -108 37 -73 43 -136 43 -456 l0
-304 31 0 30 0 -3 353 c-3 307 -6 358 -21 398 -26 67 -77 122 -139 149 -64 28
-191 36 -259 17z"/>
<path d="M3447 1260 c-150 -38 -261 -170 -293 -349 -44 -247 34 -461 199 -545
148 -75 365 -48 472 59 39 40 90 136 101 193 6 31 5 32 -25 32 -17 0 -33 -6
-35 -12 -35 -120 -103 -201 -201 -238 -124 -45 -277 -12 -356 77 -56 64 -94
165 -101 268 l-3 40 369 3 369 2 -6 78 c-4 42 -13 100 -21 127 -35 116 -124
215 -226 251 -54 19 -191 27 -243 14z m205 -67 c66 -20 141 -90 177 -166 28
-58 55 -170 43 -182 -3 -3 -154 -5 -335 -5 l-330 0 6 51 c13 111 103 246 192
289 81 39 152 43 247 13z"/>
<path d="M4800 1259 c-131 -26 -201 -95 -208 -206 -10 -154 58 -216 293 -268
217 -47 274 -75 314 -152 26 -52 9 -128 -42 -181 -62 -64 -229 -91 -346 -56
-89 26 -169 115 -186 207 -6 33 -11 37 -36 37 -26 0 -29 -3 -29 -33 0 -54 29
-123 71 -171 77 -87 215 -128 368 -107 108 14 172 43 221 99 45 50 54 85 48
176 -8 131 -79 183 -319 235 -158 34 -230 62 -264 103 -45 54 -45 133 2 189
90 106 344 110 440 7 29 -30 53 -89 53 -128 0 -28 3 -30 36 -30 l36 0 -7 48
c-14 94 -60 164 -135 202 -73 37 -205 49 -310 29z"/>
<path d="M6964 1260 c-133 -27 -219 -114 -231 -236 l-6 -54 32 0 c23 0 31 4
31 18 0 42 34 114 71 151 90 90 278 100 386 22 52 -37 73 -84 73 -159 0 -50
-4 -66 -25 -90 -31 -37 -70 -47 -251 -67 -165 -17 -204 -27 -266 -67 -66 -42
-98 -108 -98 -202 0 -154 75 -231 245 -250 152 -18 296 42 365 151 l28 43 4
-60 c5 -71 30 -105 86 -114 54 -8 82 2 82 30 0 21 -5 24 -33 24 -22 0 -41 8
-53 21 -18 20 -19 45 -24 363 -3 233 -9 347 -17 361 -16 29 -63 70 -98 88 -68
34 -204 46 -301 27z m354 -527 c-4 -136 -21 -184 -87 -256 -64 -69 -125 -92
-247 -92 -94 0 -104 2 -149 30 -89 55 -119 159 -74 253 40 81 119 112 334 132
118 11 181 24 200 41 23 22 27 3 23 -108z"/>
<path d="M10447 1260 c-180 -46 -296 -231 -297 -471 0 -112 13 -180 50 -255
76 -156 231 -233 414 -205 40 6 94 19 119 30 93 40 171 140 196 250 l9 41 -33
0 c-30 0 -33 -3 -43 -43 -24 -95 -111 -184 -206 -212 -201 -60 -380 50 -431
266 -8 35 -15 79 -15 97 l0 32 365 0 365 0 0 68 c0 171 -85 314 -222 377 -65
29 -203 42 -271 25z m240 -81 c93 -45 157 -132 183 -251 21 -95 45 -88 -324
-88 -205 0 -327 4 -331 10 -9 14 20 121 46 171 28 56 105 136 153 161 84 43
178 42 273 -3z"/>
<path d="M11349 1257 c-181 -52 -279 -205 -279 -436 0 -164 38 -270 124 -349
67 -61 124 -83 232 -89 170 -10 248 31 352 183 10 16 12 -9 9 -136 -3 -137 -6
-161 -26 -208 -48 -108 -152 -167 -296 -167 -150 0 -249 60 -281 171 -14 50
-18 54 -46 54 l-31 0 7 -47 c10 -74 54 -143 116 -180 70 -42 140 -56 270 -51
99 3 113 6 176 38 55 28 76 46 106 90 66 97 68 116 68 647 l0 473 -30 0 -29 0
-3 -92 -3 -93 -27 47 c-34 57 -92 104 -161 130 -65 25 -187 32 -248 15z m251
-80 c250 -123 249 -590 -3 -711 -102 -49 -223 -43 -312 16 -92 61 -144 166
-152 309 -14 219 93 385 268 418 67 13 127 3 199 -32z"/>
<path d="M12610 1255 c-187 -53 -300 -226 -300 -460 0 -254 132 -430 347 -466
229 -38 417 100 467 344 28 133 15 249 -38 363 -46 97 -93 147 -181 190 -62
31 -85 37 -157 40 -55 3 -101 -1 -138 -11z m208 -55 c244 -62 340 -455 168
-688 -118 -162 -350 -179 -491 -38 -159 160 -166 464 -14 630 91 100 200 131
337 96z"/>
<path d="M13590 1255 c-71 -20 -149 -74 -180 -125 -51 -83 -49 -83 -50 23 l0
97 -30 0 -30 0 0 -455 0 -455 29 0 29 0 4 298 c4 258 7 304 23 347 54 147 161
227 303 227 115 1 190 -41 234 -129 23 -47 23 -54 26 -395 l3 -348 30 0 30 0
-3 363 c-3 358 -3 363 -27 410 -28 57 -95 119 -148 136 -62 20 -181 23 -243 6z"/>
<path d="M14444 1256 c-127 -31 -199 -109 -218 -239 l-7 -47 31 0 c17 0 32 6
34 13 2 6 10 34 17 62 45 174 338 231 468 90 44 -48 56 -90 48 -163 -9 -85
-49 -103 -279 -127 -212 -21 -293 -57 -339 -152 -42 -87 -26 -227 34 -291 57
-61 194 -93 314 -72 115 19 195 73 260 176 10 16 12 11 12 -34 1 -67 23 -110
59 -118 15 -3 33 -7 40 -10 7 -2 26 -1 42 3 23 4 30 11 30 29 0 20 -5 24 -33
24 -18 0 -42 6 -53 14 -18 14 -19 32 -24 358 -5 370 -6 374 -62 424 -71 66
-240 92 -374 60z m374 -518 c-3 -95 -8 -122 -29 -168 -36 -77 -80 -124 -147
-157 -51 -25 -68 -28 -157 -28 -116 0 -158 16 -209 79 -29 35 -31 44 -31 116
0 72 2 81 31 117 40 50 114 79 235 93 190 22 241 30 267 45 15 8 31 14 36 15
4 0 6 -51 4 -112z"/>
<path d="M17215 1261 c-82 -21 -154 -80 -193 -156 l-21 -40 -1 93 0 92 -30 0
-30 0 0 -455 0 -455 30 0 30 0 0 299 c0 271 2 305 20 364 75 243 387 287 471
67 9 -26 14 -126 17 -382 l4 -348 28 0 29 0 3 328 c3 319 4 328 27 379 25 56
93 127 139 144 132 50 258 12 308 -94 24 -52 24 -53 24 -404 l0 -353 36 0 35
0 -3 358 c-4 392 -7 410 -68 484 -49 60 -109 83 -215 83 -78 0 -97 -4 -147
-28 -56 -28 -90 -62 -123 -126 l-17 -35 -15 34 c-40 97 -120 149 -237 155 -39
3 -84 1 -101 -4z"/>
<path d="M18581 1260 c-134 -29 -231 -136 -231 -257 0 -30 3 -33 30 -33 22 0
30 5 30 18 0 48 34 113 80 155 58 52 109 69 208 69 161 -1 259 -96 242 -234
-11 -91 -46 -108 -276 -132 -165 -18 -230 -37 -285 -84 -57 -49 -79 -100 -79
-188 0 -118 48 -192 152 -231 67 -25 228 -22 299 6 66 25 142 88 168 139 l18
35 6 -62 c6 -72 23 -97 78 -111 54 -15 89 -4 89 26 0 21 -5 24 -33 24 -66 0
-65 -2 -69 370 l-3 335 -28 47 c-22 38 -40 53 -91 78 -56 28 -76 32 -163 35
-54 2 -118 0 -142 -5z m338 -676 c-28 -73 -93 -144 -162 -175 -43 -20 -69 -24
-152 -24 -87 0 -105 3 -142 24 -114 66 -137 213 -47 304 44 44 100 64 218 77
219 26 248 30 274 44 l27 14 3 -103 c2 -85 -1 -112 -19 -161z"/>
<path d="M20247 1259 c-134 -32 -241 -138 -288 -288 -27 -86 -29 -239 -5 -330
45 -174 164 -286 329 -312 220 -34 403 92 462 318 18 67 20 210 4 285 -25 119
-100 228 -195 284 -81 48 -210 66 -307 43z m216 -66 c59 -18 143 -94 180 -160
92 -171 68 -415 -54 -548 -60 -65 -127 -97 -215 -103 -103 -7 -168 15 -239 80
-90 82 -135 193 -135 332 0 135 39 242 115 320 92 95 211 122 348 79z"/>
<path d="M21219 1257 c-54 -15 -126 -56 -156 -89 -12 -12 -33 -43 -47 -68
l-26 -45 0 98 0 97 -30 0 -30 0 0 -455 0 -455 30 0 30 0 0 283 c0 203 4 296
14 332 38 144 125 229 256 253 117 21 234 -24 277 -108 37 -73 43 -136 43
-456 l0 -304 31 0 30 0 -3 353 c-4 305 -6 358 -22 398 -25 67 -76 122 -138
149 -64 28 -191 36 -259 17z"/>
<path d="M22405 1257 c-116 -31 -203 -103 -254 -210 -41 -87 -55 -169 -48
-290 13 -247 129 -394 333 -427 182 -30 341 45 414 193 17 35 33 79 37 100 5
36 5 37 -24 37 -26 0 -31 -5 -43 -42 -21 -72 -47 -113 -100 -162 -61 -54 -124
-76 -216 -76 -169 0 -289 109 -329 296 -39 183 6 348 122 454 87 80 208 103
337 66 81 -24 157 -99 176 -174 13 -47 16 -52 42 -52 23 0 28 4 28 23 0 93
-91 207 -195 246 -74 28 -208 36 -280 18z"/>
<path d="M23284 1257 c-116 -30 -191 -103 -213 -208 -16 -74 -15 -79 18 -79
31 0 33 4 46 67 16 82 106 155 210 171 101 16 187 -4 250 -60 63 -55 82 -137
51 -213 -24 -57 -56 -67 -273 -90 -271 -28 -358 -93 -357 -270 1 -152 66 -222
228 -246 166 -25 328 42 393 164 l18 32 6 -68 c6 -77 19 -95 74 -107 57 -13
95 -3 95 26 0 20 -6 23 -42 26 -67 5 -68 8 -68 363 0 195 -4 325 -11 350 -14
51 -73 108 -136 129 -64 23 -223 30 -289 13z m374 -519 c-3 -94 -8 -122 -30
-168 -55 -121 -143 -180 -279 -188 -95 -6 -153 9 -204 51 -46 37 -65 81 -65
146 0 130 75 188 272 211 188 22 240 30 266 45 15 8 31 14 36 15 5 0 7 -51 4
-112z"/>
<path d="M2120 795 l0 -455 30 0 30 0 0 455 0 455 -30 0 -30 0 0 -455z"/>
<path d="M2300 1245 c0 -4 79 -203 176 -443 97 -240 179 -443 181 -450 4 -8
20 -12 46 -10 l40 3 168 445 c93 245 169 448 169 453 0 4 -15 7 -34 7 l-34 0
-90 -242 c-49 -134 -118 -320 -153 -415 -35 -94 -66 -169 -69 -167 -3 3 -77
189 -166 412 l-161 407 -37 3 c-20 2 -36 0 -36 -3z"/>
<path d="M4100 795 l0 -455 29 0 29 0 4 293 c4 276 5 295 27 350 46 116 172
207 286 207 44 0 45 1 45 31 l0 32 -64 -5 c-112 -9 -223 -76 -269 -162 l-22
-41 -3 103 -3 102 -29 0 -30 0 0 -455z"/>
<path d="M5460 795 l0 -455 30 0 30 0 0 455 0 455 -30 0 -30 0 0 -455z"/>
<path d="M12070 795 l0 -455 30 0 30 0 0 455 0 455 -30 0 -30 0 0 -455z"/>
<path d="M19190 1220 l0 -30 275 0 c151 0 275 -2 275 -5 0 -2 -135 -179 -300
-391 -255 -330 -300 -393 -300 -421 l0 -33 360 0 360 0 0 30 0 30 -318 2 -319
3 304 390 c255 329 303 395 303 423 l0 32 -320 0 -320 0 0 -30z"/>
<path d="M21860 795 l0 -455 30 0 30 0 0 455 0 455 -30 0 -30 0 0 -455z"/>
</g>
</svg>
